<?xml version="1.0" encoding="utf-8"?>
<!-- Generator: Adobe Illustrator 21.0.2, SVG Export Plug-In . SVG Version: 6.00 Build 0)  -->
<svg version="1.1" xmlns="http://www.w3.org/2000/svg" xmlns:xlink="http://www.w3.org/1999/xlink" x="0px" y="0px"
	width="178px" height="85px" viewBox="0 0 178 85" style="enable-background:new 0 0 178 85;" xml:space="preserve">
<style type="text/css">
	.st0{fill:#F6C400;}
	.st1{fill:#0F1D52;}
</style>
<g>
	<polyline class="st0" points="178,0 0,0 0,0 0,85 178,85 	"/>
	<path class="st1" d="M94.3,36"/>
	<g>
		<polygon class="st1" points="32.6,21.6 32.6,36 40.7,36 40.7,21.6 53.7,21.6 53.7,31.4 50.3,31.4 50.3,51.5 53.7,51.5 53.7,61.3
			40.7,61.3 40.7,46.9 32.6,46.9 32.6,61.3 19.7,61.3 19.7,51.5 23,51.5 23,31.4 19.7,31.4 19.7,21.6 32.6,21.6 		"/>
		<path class="st1" d="M76.7,32.7c0-1.7-1.5-3.1-3.2-3.2c0,0-12.4,0-12.9,0c-1.8,0-3.2,1.4-3.2,3.1V50c0,1.7,1.5,3.1,3.2,3.1
			c0,0,16.1,0,16.1,0v-5H64.4v-4.3h12.4V32.7L76.7,32.7z M69.7,38.9h-5.4v-4.4h5.4V38.9L69.7,38.9z"/>
		<path class="st1" d="M145.3,42c0-1.7-1.5-3.2-3.2-3.2c0,0-9.1,0-9.1,0v-4.3h12.4v-5c0,0-16.1,0-16.2,0c-1.8,0-3.2,1.4-3.2,3.2
			c0,0,0,7.7,0,7.8c0,1.8,1.4,3.3,3.2,3.3c0.1,0,9.1,0,9.1,0l0,4.3H126v5c0,0,16,0,16.1,0c1.8,0,3.2-1.5,3.2-3.2
			C145.4,49.5,145.3,42,145.3,42L145.3,42z"/>
		<path class="st1" d="M122.5,29.5c0,0-16.1,0-16.1,0c-1.8,0-3.2,1.4-3.2,3.2c0,0.6,0,17.2,0,17.2c0,1.7,1.4,3.2,3.2,3.2h9.2v3.8
			H57.3v4.4c0,0,61.9,0,61.9,0c1.8,0,3.2-1.5,3.2-3.2C122.5,58,122.5,29.5,122.5,29.5L122.5,29.5z M115.5,48.2h-5.4l0-13.7h5.4V48.2
			L115.5,48.2z"/>
		<path class="st1" d="M99.6,32.8c0-1.8-1.4-3.2-3.2-3.2c-0.1,0-16.1,0-16.1,0v23.6h7V34.5h5.3v18.6h7
			C99.6,53.2,99.6,32.8,99.6,32.8L99.6,32.8z"/>
		<polygon class="st1" points="155.8,21.6 155.8,19.9 148.9,19.9 148.9,21.6 57.3,21.6 57.3,25.9 148.8,25.9 148.8,53.2 155.8,53.2
			155.8,25.9 160.7,25.9 160.7,21.6 		"/>
	</g>
	<g>
		<path class="st1" d="M86.9,67.8v1.5h3.2v1.9h-3.2v3.3h-2.1v-8.6h5.8v1.9H86.9z"/>
		<path class="st1" d="M92.8,74.5v-8.6H95v8.6H92.8z"/>
		<path class="st1" d="M97.9,74.5v-8.6h2.1v6.7h3.6v1.9H97.9z"/>
		<path class="st1" d="M108.2,67.8v6.7h-2.1v-6.7H104v-1.9h6.3v1.9H108.2z"/>
		<path class="st1" d="M116.2,74.5l-1.5-3.2H114v3.2h-2.1v-8.6h3.4c1.9,0,2.9,1.3,2.9,2.8c0,1.2-0.7,1.9-1.4,2.2l1.9,3.6H116.2z
			 M115.1,67.8H114v1.7h1.2c0.6,0,0.9-0.4,0.9-0.9C116.1,68.2,115.7,67.8,115.1,67.8z"/>
		<path class="st1" d="M125.1,74.5l-0.4-1.3h-2.6l-0.4,1.3h-2.2l3.1-8.6h1.6l3.1,8.6H125.1z M123.4,69.1l-0.8,2.3h1.5L123.4,69.1z"
			/>
		<path class="st1" d="M131.9,67.8v6.7h-2.1v-6.7h-2.1v-1.9h6.3v1.9H131.9z"/>
		<path class="st1" d="M136.1,74.5v-8.6h2.1v8.6H136.1z"/>
		<path class="st1" d="M146.1,73.6c-0.6,0.6-1.3,0.9-2.4,0.9c-1,0-1.8-0.3-2.4-0.9c-0.9-0.9-0.9-2-0.9-3.4c0-1.4,0-2.5,0.9-3.4
			c0.6-0.6,1.3-0.9,2.4-0.9c1,0,1.8,0.3,2.4,0.9c0.9,0.9,0.9,2,0.9,3.4C147,71.6,147,72.7,146.1,73.6z M144.6,68.1
			c-0.2-0.2-0.5-0.4-0.8-0.4c-0.4,0-0.7,0.2-0.8,0.4c-0.2,0.3-0.3,0.5-0.3,2.1c0,1.6,0.1,1.8,0.3,2.1c0.2,0.2,0.5,0.4,0.8,0.4
			c0.4,0,0.7-0.2,0.8-0.4c0.2-0.3,0.3-0.5,0.3-2.1C144.9,68.6,144.8,68.3,144.6,68.1z"/>
		<path class="st1" d="M153.9,74.5l-2.7-4.3v4.3h-2.1v-8.6h1.8l2.7,4.3v-4.3h2.1v8.6H153.9z"/>
	</g>
</g>
<path class="st1" d="M684.1,491.3"/>
</svg>
